<mxfile host="app.diagrams.net" agent="Mozilla/5.0 (Windows NT 10.0; Win64; x64) AppleWebKit/537.36 (KHTML, like Gecko) Chrome/141.0.0.0 Safari/537.36 Edg/141.0.0.0" version="28.2.7">
  <diagram name="Page-1" id="QkUfjN_0NoW4m2OWi__0">
    <mxGraphModel dx="1034" dy="570" grid="1" gridSize="10" guides="1" tooltips="1" connect="1" arrows="1" fold="1" page="1" pageScale="1" pageWidth="850" pageHeight="1100" math="0" shadow="0">
      <root>
        <mxCell id="0" />
        <mxCell id="1" parent="0" />
        <mxCell id="EtsdPqrldoZ3jOg6H5Vp-1" value="company" style="rounded=0;whiteSpace=wrap;html=1;" parent="1" vertex="1">
          <mxGeometry x="80" y="40" width="120" height="60" as="geometry" />
        </mxCell>
        <mxCell id="EtsdPqrldoZ3jOg6H5Vp-2" value="Department" style="rounded=0;whiteSpace=wrap;html=1;" parent="1" vertex="1">
          <mxGeometry x="360" y="40" width="120" height="60" as="geometry" />
        </mxCell>
        <mxCell id="EtsdPqrldoZ3jOg6H5Vp-3" value="Employee" style="rounded=0;whiteSpace=wrap;html=1;" parent="1" vertex="1">
          <mxGeometry x="80" y="150" width="120" height="60" as="geometry" />
        </mxCell>
        <mxCell id="EtsdPqrldoZ3jOg6H5Vp-4" value="" style="endArrow=none;html=1;rounded=0;entryX=-0.004;entryY=0.668;entryDx=0;entryDy=0;entryPerimeter=0;" parent="1" target="EtsdPqrldoZ3jOg6H5Vp-2" edge="1">
          <mxGeometry width="50" height="50" relative="1" as="geometry">
            <mxPoint x="200" y="80" as="sourcePoint" />
            <mxPoint x="230" y="200" as="targetPoint" />
            <Array as="points">
              <mxPoint x="280" y="80" />
            </Array>
          </mxGeometry>
        </mxCell>
        <mxCell id="EtsdPqrldoZ3jOg6H5Vp-5" value="Department" style="rounded=0;whiteSpace=wrap;html=1;" parent="1" vertex="1">
          <mxGeometry x="360" y="150" width="120" height="60" as="geometry" />
        </mxCell>
        <mxCell id="EtsdPqrldoZ3jOg6H5Vp-6" value="" style="endArrow=none;html=1;rounded=0;" parent="1" edge="1">
          <mxGeometry width="50" height="50" relative="1" as="geometry">
            <mxPoint x="200" y="180" as="sourcePoint" />
            <mxPoint x="360" y="180" as="targetPoint" />
            <Array as="points" />
          </mxGeometry>
        </mxCell>
        <mxCell id="EtsdPqrldoZ3jOg6H5Vp-8" value="4..4" style="text;html=1;align=center;verticalAlign=middle;whiteSpace=wrap;rounded=0;" parent="1" vertex="1">
          <mxGeometry x="300" y="80" width="60" height="30" as="geometry" />
        </mxCell>
        <mxCell id="EtsdPqrldoZ3jOg6H5Vp-9" value="1..1" style="text;html=1;align=center;verticalAlign=middle;whiteSpace=wrap;rounded=0;" parent="1" vertex="1">
          <mxGeometry x="190" y="80" width="60" height="30" as="geometry" />
        </mxCell>
        <mxCell id="EtsdPqrldoZ3jOg6H5Vp-11" value="1..*" style="text;html=1;align=center;verticalAlign=middle;whiteSpace=wrap;rounded=0;" parent="1" vertex="1">
          <mxGeometry x="190" y="180" width="60" height="30" as="geometry" />
        </mxCell>
        <mxCell id="EtsdPqrldoZ3jOg6H5Vp-12" value="1..1" style="text;html=1;align=center;verticalAlign=middle;whiteSpace=wrap;rounded=0;" parent="1" vertex="1">
          <mxGeometry x="310" y="180" width="60" height="30" as="geometry" />
        </mxCell>
        <mxCell id="EtsdPqrldoZ3jOg6H5Vp-13" value="" style="triangle;whiteSpace=wrap;html=1;fillColor=#000000;" parent="1" vertex="1">
          <mxGeometry x="250" y="40" width="10" height="20" as="geometry" />
        </mxCell>
        <mxCell id="EtsdPqrldoZ3jOg6H5Vp-14" value="has" style="text;html=1;align=center;verticalAlign=middle;whiteSpace=wrap;rounded=0;" parent="1" vertex="1">
          <mxGeometry x="260" y="35" width="60" height="30" as="geometry" />
        </mxCell>
        <mxCell id="EtsdPqrldoZ3jOg6H5Vp-15" value="" style="triangle;whiteSpace=wrap;html=1;fillColor=#000000;" parent="1" vertex="1">
          <mxGeometry x="250" y="150" width="10" height="20" as="geometry" />
        </mxCell>
        <mxCell id="EtsdPqrldoZ3jOg6H5Vp-16" value="allocated" style="text;html=1;align=center;verticalAlign=middle;whiteSpace=wrap;rounded=0;" parent="1" vertex="1">
          <mxGeometry x="260" y="145" width="60" height="30" as="geometry" />
        </mxCell>
        <mxCell id="EtsdPqrldoZ3jOg6H5Vp-17" value="Employee" style="rounded=0;whiteSpace=wrap;html=1;" parent="1" vertex="1">
          <mxGeometry x="80" y="340" width="120" height="60" as="geometry" />
        </mxCell>
        <mxCell id="EtsdPqrldoZ3jOg6H5Vp-19" value="Employment history" style="rounded=0;whiteSpace=wrap;html=1;" parent="1" vertex="1">
          <mxGeometry x="360" y="340" width="120" height="60" as="geometry" />
        </mxCell>
        <mxCell id="EtsdPqrldoZ3jOg6H5Vp-20" value="" style="endArrow=none;html=1;rounded=0;exitX=1;exitY=0.5;exitDx=0;exitDy=0;entryX=0;entryY=0.5;entryDx=0;entryDy=0;" parent="1" source="EtsdPqrldoZ3jOg6H5Vp-17" target="EtsdPqrldoZ3jOg6H5Vp-19" edge="1">
          <mxGeometry width="50" height="50" relative="1" as="geometry">
            <mxPoint x="260" y="250" as="sourcePoint" />
            <mxPoint x="310" y="200" as="targetPoint" />
          </mxGeometry>
        </mxCell>
        <mxCell id="EtsdPqrldoZ3jOg6H5Vp-21" value="" style="triangle;whiteSpace=wrap;html=1;fillColor=#000000;" parent="1" vertex="1">
          <mxGeometry x="250" y="340" width="10" height="20" as="geometry" />
        </mxCell>
        <mxCell id="EtsdPqrldoZ3jOg6H5Vp-22" value="have" style="text;html=1;align=center;verticalAlign=middle;whiteSpace=wrap;rounded=0;" parent="1" vertex="1">
          <mxGeometry x="270" y="335" width="60" height="30" as="geometry" />
        </mxCell>
        <mxCell id="EtsdPqrldoZ3jOg6H5Vp-24" value="0..*" style="text;html=1;align=center;verticalAlign=middle;whiteSpace=wrap;rounded=0;" parent="1" vertex="1">
          <mxGeometry x="310" y="365" width="60" height="30" as="geometry" />
        </mxCell>
        <mxCell id="EtsdPqrldoZ3jOg6H5Vp-27" value="Employee" style="rounded=0;whiteSpace=wrap;html=1;" parent="1" vertex="1">
          <mxGeometry x="80" y="250" width="120" height="60" as="geometry" />
        </mxCell>
        <mxCell id="EtsdPqrldoZ3jOg6H5Vp-28" value="Device" style="rounded=0;whiteSpace=wrap;html=1;" parent="1" vertex="1">
          <mxGeometry x="360" y="250" width="120" height="60" as="geometry" />
        </mxCell>
        <mxCell id="EtsdPqrldoZ3jOg6H5Vp-29" value="" style="endArrow=none;html=1;rounded=0;exitX=1;exitY=0.5;exitDx=0;exitDy=0;entryX=0;entryY=0.5;entryDx=0;entryDy=0;" parent="1" source="EtsdPqrldoZ3jOg6H5Vp-27" target="EtsdPqrldoZ3jOg6H5Vp-28" edge="1">
          <mxGeometry width="50" height="50" relative="1" as="geometry">
            <mxPoint x="390" y="320" as="sourcePoint" />
            <mxPoint x="359" y="275" as="targetPoint" />
          </mxGeometry>
        </mxCell>
        <mxCell id="EtsdPqrldoZ3jOg6H5Vp-31" value="" style="triangle;whiteSpace=wrap;html=1;fillColor=#000000;" parent="1" vertex="1">
          <mxGeometry x="250" y="250" width="10" height="20" as="geometry" />
        </mxCell>
        <mxCell id="EtsdPqrldoZ3jOg6H5Vp-32" value="may have" style="text;html=1;align=center;verticalAlign=middle;whiteSpace=wrap;rounded=0;" parent="1" vertex="1">
          <mxGeometry x="270" y="245" width="60" height="30" as="geometry" />
        </mxCell>
        <mxCell id="EtsdPqrldoZ3jOg6H5Vp-33" value="0..1" style="text;html=1;align=center;verticalAlign=middle;whiteSpace=wrap;rounded=0;" parent="1" vertex="1">
          <mxGeometry x="310" y="280" width="60" height="30" as="geometry" />
        </mxCell>
        <mxCell id="EtsdPqrldoZ3jOg6H5Vp-34" value="0..1" style="text;html=1;align=center;verticalAlign=middle;whiteSpace=wrap;rounded=0;" parent="1" vertex="1">
          <mxGeometry x="190" y="280" width="60" height="30" as="geometry" />
        </mxCell>
        <mxCell id="EtsdPqrldoZ3jOg6H5Vp-35" value="1..1" style="text;html=1;align=center;verticalAlign=middle;whiteSpace=wrap;rounded=0;" parent="1" vertex="1">
          <mxGeometry x="190" y="370" width="60" height="30" as="geometry" />
        </mxCell>
        <mxCell id="EtsdPqrldoZ3jOg6H5Vp-36" value="company" style="rounded=0;whiteSpace=wrap;html=1;" parent="1" vertex="1">
          <mxGeometry x="80" y="440" width="120" height="60" as="geometry" />
        </mxCell>
        <mxCell id="EtsdPqrldoZ3jOg6H5Vp-37" value="Department" style="rounded=0;whiteSpace=wrap;html=1;" parent="1" vertex="1">
          <mxGeometry x="360" y="440" width="120" height="60" as="geometry" />
        </mxCell>
        <mxCell id="EtsdPqrldoZ3jOg6H5Vp-38" value="Employment history" style="rounded=0;whiteSpace=wrap;html=1;" parent="1" vertex="1">
          <mxGeometry x="80" y="540" width="120" height="60" as="geometry" />
        </mxCell>
        <mxCell id="EtsdPqrldoZ3jOg6H5Vp-39" value="Employee" style="rounded=0;whiteSpace=wrap;html=1;" parent="1" vertex="1">
          <mxGeometry x="360" y="540" width="120" height="60" as="geometry" />
        </mxCell>
        <mxCell id="EtsdPqrldoZ3jOg6H5Vp-40" value="Device" style="rounded=0;whiteSpace=wrap;html=1;" parent="1" vertex="1">
          <mxGeometry x="360" y="650" width="120" height="60" as="geometry" />
        </mxCell>
        <mxCell id="EtsdPqrldoZ3jOg6H5Vp-41" value="" style="endArrow=none;html=1;rounded=0;exitX=1;exitY=0.5;exitDx=0;exitDy=0;entryX=0;entryY=0.5;entryDx=0;entryDy=0;" parent="1" source="EtsdPqrldoZ3jOg6H5Vp-36" target="EtsdPqrldoZ3jOg6H5Vp-37" edge="1">
          <mxGeometry width="50" height="50" relative="1" as="geometry">
            <mxPoint x="470" y="470" as="sourcePoint" />
            <mxPoint x="360" y="465" as="targetPoint" />
            <Array as="points">
              <mxPoint x="280" y="470" />
            </Array>
          </mxGeometry>
        </mxCell>
        <mxCell id="EtsdPqrldoZ3jOg6H5Vp-42" value="" style="endArrow=none;html=1;rounded=0;entryX=0;entryY=0.5;entryDx=0;entryDy=0;exitX=1;exitY=0.5;exitDx=0;exitDy=0;" parent="1" source="EtsdPqrldoZ3jOg6H5Vp-38" target="EtsdPqrldoZ3jOg6H5Vp-39" edge="1">
          <mxGeometry width="50" height="50" relative="1" as="geometry">
            <mxPoint x="250" y="580" as="sourcePoint" />
            <mxPoint x="300" y="530" as="targetPoint" />
          </mxGeometry>
        </mxCell>
        <mxCell id="EtsdPqrldoZ3jOg6H5Vp-43" value="" style="endArrow=none;html=1;rounded=0;entryX=1;entryY=0.5;entryDx=0;entryDy=0;exitX=0.5;exitY=0;exitDx=0;exitDy=0;" parent="1" source="EtsdPqrldoZ3jOg6H5Vp-39" target="EtsdPqrldoZ3jOg6H5Vp-37" edge="1">
          <mxGeometry width="50" height="50" relative="1" as="geometry">
            <mxPoint x="280" y="580" as="sourcePoint" />
            <mxPoint x="330" y="530" as="targetPoint" />
            <Array as="points">
              <mxPoint x="420" y="530" />
              <mxPoint x="500" y="530" />
              <mxPoint x="500" y="470" />
            </Array>
          </mxGeometry>
        </mxCell>
        <mxCell id="EtsdPqrldoZ3jOg6H5Vp-44" value="" style="endArrow=none;html=1;rounded=0;entryX=0.5;entryY=1;entryDx=0;entryDy=0;exitX=1;exitY=0.5;exitDx=0;exitDy=0;" parent="1" source="EtsdPqrldoZ3jOg6H5Vp-40" target="EtsdPqrldoZ3jOg6H5Vp-39" edge="1">
          <mxGeometry width="50" height="50" relative="1" as="geometry">
            <mxPoint x="290" y="570" as="sourcePoint" />
            <mxPoint x="340" y="520" as="targetPoint" />
            <Array as="points">
              <mxPoint x="500" y="680" />
              <mxPoint x="500" y="640" />
              <mxPoint x="500" y="630" />
              <mxPoint x="420" y="630" />
            </Array>
          </mxGeometry>
        </mxCell>
        <mxCell id="EtsdPqrldoZ3jOg6H5Vp-45" value="" style="triangle;whiteSpace=wrap;html=1;fillColor=#000000;" parent="1" vertex="1">
          <mxGeometry x="250" y="440" width="10" height="20" as="geometry" />
        </mxCell>
        <mxCell id="EtsdPqrldoZ3jOg6H5Vp-47" value="" style="triangle;whiteSpace=wrap;html=1;fillColor=#000000;rotation=-180;" parent="1" vertex="1">
          <mxGeometry x="480" y="500" width="10" height="20" as="geometry" />
        </mxCell>
        <mxCell id="EtsdPqrldoZ3jOg6H5Vp-48" value="1..*" style="text;html=1;align=center;verticalAlign=middle;whiteSpace=wrap;rounded=0;" parent="1" vertex="1">
          <mxGeometry x="365" y="510" width="60" height="30" as="geometry" />
        </mxCell>
        <mxCell id="EtsdPqrldoZ3jOg6H5Vp-49" value="1..1" style="text;html=1;align=center;verticalAlign=middle;whiteSpace=wrap;rounded=0;" parent="1" vertex="1">
          <mxGeometry x="470" y="440" width="60" height="30" as="geometry" />
        </mxCell>
        <mxCell id="EtsdPqrldoZ3jOg6H5Vp-50" value="1..1" style="text;html=1;align=center;verticalAlign=middle;whiteSpace=wrap;rounded=0;" parent="1" vertex="1">
          <mxGeometry x="190" y="470" width="60" height="30" as="geometry" />
        </mxCell>
        <mxCell id="EtsdPqrldoZ3jOg6H5Vp-51" value="4..4" style="text;html=1;align=center;verticalAlign=middle;whiteSpace=wrap;rounded=0;" parent="1" vertex="1">
          <mxGeometry x="300" y="470" width="60" height="30" as="geometry" />
        </mxCell>
        <mxCell id="EtsdPqrldoZ3jOg6H5Vp-52" value="0..*" style="text;html=1;align=center;verticalAlign=middle;whiteSpace=wrap;rounded=0;" parent="1" vertex="1">
          <mxGeometry x="470" y="680" width="60" height="30" as="geometry" />
        </mxCell>
        <mxCell id="EtsdPqrldoZ3jOg6H5Vp-53" value="0..1" style="text;html=1;align=center;verticalAlign=middle;whiteSpace=wrap;rounded=0;" parent="1" vertex="1">
          <mxGeometry x="365" y="600" width="60" height="30" as="geometry" />
        </mxCell>
        <mxCell id="EtsdPqrldoZ3jOg6H5Vp-55" value="0..*" style="text;html=1;align=center;verticalAlign=middle;whiteSpace=wrap;rounded=0;" parent="1" vertex="1">
          <mxGeometry x="190" y="570" width="60" height="30" as="geometry" />
        </mxCell>
        <mxCell id="EtsdPqrldoZ3jOg6H5Vp-57" value="1..1" style="text;html=1;align=center;verticalAlign=middle;whiteSpace=wrap;rounded=0;" parent="1" vertex="1">
          <mxGeometry x="310" y="570" width="60" height="30" as="geometry" />
        </mxCell>
        <mxCell id="EtsdPqrldoZ3jOg6H5Vp-59" value="" style="triangle;whiteSpace=wrap;html=1;fillColor=#000000;rotation=-180;" parent="1" vertex="1">
          <mxGeometry x="310" y="540" width="10" height="20" as="geometry" />
        </mxCell>
        <mxCell id="EtsdPqrldoZ3jOg6H5Vp-60" value="" style="triangle;whiteSpace=wrap;html=1;fillColor=#000000;" parent="1" vertex="1">
          <mxGeometry x="430" y="610" width="10" height="10" as="geometry" />
        </mxCell>
        <mxCell id="EtsdPqrldoZ3jOg6H5Vp-61" value="allocated" style="text;html=1;align=center;verticalAlign=middle;whiteSpace=wrap;rounded=0;" parent="1" vertex="1">
          <mxGeometry x="440" y="600" width="60" height="30" as="geometry" />
        </mxCell>
        <mxCell id="EtsdPqrldoZ3jOg6H5Vp-62" value="has" style="text;html=1;align=center;verticalAlign=middle;whiteSpace=wrap;rounded=0;" parent="1" vertex="1">
          <mxGeometry x="240" y="540" width="60" height="30" as="geometry" />
        </mxCell>
        <mxCell id="EtsdPqrldoZ3jOg6H5Vp-63" value="have" style="text;html=1;align=center;verticalAlign=middle;whiteSpace=wrap;rounded=0;" parent="1" vertex="1">
          <mxGeometry x="260" y="435" width="60" height="30" as="geometry" />
        </mxCell>
        <mxCell id="EtsdPqrldoZ3jOg6H5Vp-64" value="employs" style="text;html=1;align=center;verticalAlign=middle;whiteSpace=wrap;rounded=0;" parent="1" vertex="1">
          <mxGeometry x="420" y="500" width="60" height="30" as="geometry" />
        </mxCell>
      </root>
    </mxGraphModel>
  </diagram>
</mxfile>
